<svg width="149" height="87" viewBox="0 0 149 87" fill="none" xmlns="http://www.w3.org/2000/svg">
<path d="M105.677 32.6352C93.0753 41.9785 92.6982 37.3732 95.3885 33.0449C96.1427 31.833 99.0018 27.522 101.624 23.3611C104.247 19.2059 113.483 6.70585 102.75 16.7186C97.1895 21.9068 78.4815 39.2892 78.4815 39.2892L86.5917 26.4948C86.5917 26.4948 100.938 5.51124 85.3422 14.7218C69.7466 23.9324 52.4006 43 52.4006 43C52.4006 43 64.3042 28.001 67.9962 22.784C70.8441 18.7616 86.586 -5.93275 67.9962 2.89119C49.4064 11.7151 36.9457 35.2726 41.921 29.9055C47.2937 24.1055 55.5263 13.2969 59.518 1.40406" stroke="#ED1C24" stroke-width="2" stroke-miterlimit="10" stroke-linecap="round" stroke-linejoin="round"/>
<path d="M0.675 66L2.595 54.69H5.505L7.77 60.72L10.02 54.69H12.93L14.85 66H11.925L10.95 59.49L8.28 66H7.11L4.575 59.49L3.6 66H0.675ZM22.8623 61.8L21.5423 58.035L20.2223 61.8H22.8623ZM23.6423 64.035H19.4423L18.7673 66H15.6323L19.9373 54.69H23.1473L27.4523 66H24.3173L23.6423 64.035ZM34.9487 57.585C34.6287 57.325 34.3087 57.135 33.9887 57.015C33.6687 56.885 33.3587 56.82 33.0587 56.82C32.6787 56.82 32.3687 56.91 32.1287 57.09C31.8887 57.27 31.7687 57.505 31.7687 57.795C31.7687 57.995 31.8287 58.16 31.9487 58.29C32.0687 58.42 32.2237 58.535 32.4137 58.635C32.6137 58.725 32.8337 58.805 33.0737 58.875C33.3237 58.945 33.5687 59.02 33.8087 59.1C34.7687 59.42 35.4687 59.85 35.9087 60.39C36.3587 60.92 36.5837 61.615 36.5837 62.475C36.5837 63.055 36.4837 63.58 36.2837 64.05C36.0937 64.52 35.8087 64.925 35.4287 65.265C35.0587 65.595 34.5987 65.85 34.0487 66.03C33.5087 66.22 32.8937 66.315 32.2037 66.315C30.7737 66.315 29.4487 65.89 28.2287 65.04L29.4887 62.67C29.9287 63.06 30.3637 63.35 30.7937 63.54C31.2237 63.73 31.6487 63.825 32.0687 63.825C32.5487 63.825 32.9037 63.715 33.1337 63.495C33.3737 63.275 33.4937 63.025 33.4937 62.745C33.4937 62.575 33.4637 62.43 33.4037 62.31C33.3437 62.18 33.2437 62.065 33.1037 61.965C32.9637 61.855 32.7787 61.755 32.5487 61.665C32.3287 61.575 32.0587 61.475 31.7387 61.365C31.3587 61.245 30.9837 61.115 30.6137 60.975C30.2537 60.825 29.9287 60.63 29.6387 60.39C29.3587 60.15 29.1287 59.85 28.9487 59.49C28.7787 59.12 28.6937 58.655 28.6937 58.095C28.6937 57.535 28.7837 57.03 28.9637 56.58C29.1537 56.12 29.4137 55.73 29.7437 55.41C30.0837 55.08 30.4937 54.825 30.9737 54.645C31.4637 54.465 32.0087 54.375 32.6087 54.375C33.1687 54.375 33.7537 54.455 34.3637 54.615C34.9737 54.765 35.5587 54.99 36.1187 55.29L34.9487 57.585ZM42.7992 57.18V66H39.8592V57.18H37.4442V54.69H45.2142V57.18H42.7992ZM52.9569 57.18H49.4619V59.07H52.7619V61.56H49.4619V63.51H52.9569V66H46.5219V54.69H52.9569V57.18ZM58.0166 59.745H58.5716C59.1516 59.745 59.5966 59.625 59.9066 59.385C60.2166 59.145 60.3716 58.8 60.3716 58.35C60.3716 57.9 60.2166 57.555 59.9066 57.315C59.5966 57.075 59.1516 56.955 58.5716 56.955H58.0166V59.745ZM64.4816 66H60.8216L58.0166 61.65V66H55.0766V54.69H59.6516C60.2816 54.69 60.8316 54.785 61.3016 54.975C61.7716 55.155 62.1566 55.405 62.4566 55.725C62.7666 56.045 62.9966 56.415 63.1466 56.835C63.3066 57.255 63.3866 57.705 63.3866 58.185C63.3866 59.045 63.1766 59.745 62.7566 60.285C62.3466 60.815 61.7366 61.175 60.9266 61.365L64.4816 66ZM67.8994 60.57L63.7744 54.69H67.2844L69.3844 57.78L71.4694 54.69H74.9794L70.8394 60.57V66H67.8994V60.57ZM87.3169 57.585C86.9969 57.325 86.6769 57.135 86.3569 57.015C86.0369 56.885 85.7269 56.82 85.4269 56.82C85.0469 56.82 84.7369 56.91 84.4969 57.09C84.2569 57.27 84.1369 57.505 84.1369 57.795C84.1369 57.995 84.1969 58.16 84.3169 58.29C84.4369 58.42 84.5919 58.535 84.7819 58.635C84.9819 58.725 85.2019 58.805 85.4419 58.875C85.6919 58.945 85.9369 59.02 86.1769 59.1C87.1369 59.42 87.8369 59.85 88.2769 60.39C88.7269 60.92 88.9519 61.615 88.9519 62.475C88.9519 63.055 88.8519 63.58 88.6519 64.05C88.4619 64.52 88.1769 64.925 87.7969 65.265C87.4269 65.595 86.9669 65.85 86.4169 66.03C85.8769 66.22 85.2619 66.315 84.5719 66.315C83.1419 66.315 81.8169 65.89 80.5969 65.04L81.8569 62.67C82.2969 63.06 82.7319 63.35 83.1619 63.54C83.5919 63.73 84.0169 63.825 84.4369 63.825C84.9169 63.825 85.2719 63.715 85.5019 63.495C85.7419 63.275 85.8619 63.025 85.8619 62.745C85.8619 62.575 85.8319 62.43 85.7719 62.31C85.7119 62.18 85.6119 62.065 85.4719 61.965C85.3319 61.855 85.1469 61.755 84.9169 61.665C84.6969 61.575 84.4269 61.475 84.1069 61.365C83.7269 61.245 83.3519 61.115 82.9819 60.975C82.6219 60.825 82.2969 60.63 82.0069 60.39C81.7269 60.15 81.4969 59.85 81.3169 59.49C81.1469 59.12 81.0619 58.655 81.0619 58.095C81.0619 57.535 81.1519 57.03 81.3319 56.58C81.5219 56.12 81.7819 55.73 82.1119 55.41C82.4519 55.08 82.8619 54.825 83.3419 54.645C83.8319 54.465 84.3769 54.375 84.9769 54.375C85.5369 54.375 86.1219 54.455 86.7319 54.615C87.3419 54.765 87.9269 54.99 88.4869 55.29L87.3169 57.585ZM98.9491 58.47C98.2691 57.64 97.4291 57.225 96.4291 57.225C95.9891 57.225 95.5791 57.305 95.1991 57.465C94.8291 57.625 94.5091 57.845 94.2391 58.125C93.9691 58.395 93.7541 58.72 93.5941 59.1C93.4441 59.48 93.3691 59.89 93.3691 60.33C93.3691 60.78 93.4441 61.195 93.5941 61.575C93.7541 61.955 93.9691 62.285 94.2391 62.565C94.5191 62.845 94.8441 63.065 95.2141 63.225C95.5841 63.385 95.9841 63.465 96.4141 63.465C97.3541 63.465 98.1991 63.065 98.9491 62.265V65.745L98.6491 65.85C98.1991 66.01 97.7791 66.125 97.3891 66.195C96.9991 66.275 96.6141 66.315 96.2341 66.315C95.4541 66.315 94.7041 66.17 93.9841 65.88C93.2741 65.58 92.6441 65.165 92.0941 64.635C91.5541 64.095 91.1191 63.46 90.7891 62.73C90.4591 61.99 90.2941 61.185 90.2941 60.315C90.2941 59.445 90.4541 58.65 90.7741 57.93C91.1041 57.2 91.5391 56.575 92.0791 56.055C92.6291 55.525 93.2641 55.115 93.9841 54.825C94.7041 54.525 95.4591 54.375 96.2491 54.375C96.6991 54.375 97.1391 54.425 97.5691 54.525C98.0091 54.615 98.4691 54.76 98.9491 54.96V58.47ZM104.232 59.055H108.477V54.69H111.417V66H108.477V61.335H104.232V66H101.292V54.69H104.232V59.055ZM116.353 60.345C116.353 60.795 116.438 61.21 116.608 61.59C116.778 61.97 117.008 62.3 117.298 62.58C117.588 62.86 117.923 63.08 118.303 63.24C118.693 63.39 119.103 63.465 119.533 63.465C119.963 63.465 120.368 63.39 120.748 63.24C121.138 63.08 121.478 62.86 121.768 62.58C122.068 62.3 122.303 61.97 122.473 61.59C122.643 61.21 122.728 60.795 122.728 60.345C122.728 59.895 122.643 59.48 122.473 59.1C122.303 58.72 122.068 58.39 121.768 58.11C121.478 57.83 121.138 57.615 120.748 57.465C120.368 57.305 119.963 57.225 119.533 57.225C119.103 57.225 118.693 57.305 118.303 57.465C117.923 57.615 117.588 57.83 117.298 58.11C117.008 58.39 116.778 58.72 116.608 59.1C116.438 59.48 116.353 59.895 116.353 60.345ZM113.278 60.345C113.278 59.505 113.433 58.725 113.743 58.005C114.053 57.275 114.483 56.64 115.033 56.1C115.583 55.56 116.238 55.14 116.998 54.84C117.768 54.53 118.613 54.375 119.533 54.375C120.443 54.375 121.283 54.53 122.053 54.84C122.823 55.14 123.483 55.56 124.033 56.1C124.593 56.64 125.028 57.275 125.338 58.005C125.648 58.725 125.803 59.505 125.803 60.345C125.803 61.185 125.648 61.97 125.338 62.7C125.028 63.42 124.593 64.05 124.033 64.59C123.483 65.13 122.823 65.555 122.053 65.865C121.283 66.165 120.443 66.315 119.533 66.315C118.613 66.315 117.768 66.165 116.998 65.865C116.238 65.555 115.583 65.13 115.033 64.59C114.483 64.05 114.053 63.42 113.743 62.7C113.433 61.97 113.278 61.185 113.278 60.345ZM130.225 60.345C130.225 60.795 130.31 61.21 130.48 61.59C130.65 61.97 130.88 62.3 131.17 62.58C131.46 62.86 131.795 63.08 132.175 63.24C132.565 63.39 132.975 63.465 133.405 63.465C133.835 63.465 134.24 63.39 134.62 63.24C135.01 63.08 135.35 62.86 135.64 62.58C135.94 62.3 136.175 61.97 136.345 61.59C136.515 61.21 136.6 60.795 136.6 60.345C136.6 59.895 136.515 59.48 136.345 59.1C136.175 58.72 135.94 58.39 135.64 58.11C135.35 57.83 135.01 57.615 134.62 57.465C134.24 57.305 133.835 57.225 133.405 57.225C132.975 57.225 132.565 57.305 132.175 57.465C131.795 57.615 131.46 57.83 131.17 58.11C130.88 58.39 130.65 58.72 130.48 59.1C130.31 59.48 130.225 59.895 130.225 60.345ZM127.15 60.345C127.15 59.505 127.305 58.725 127.615 58.005C127.925 57.275 128.355 56.64 128.905 56.1C129.455 55.56 130.11 55.14 130.87 54.84C131.64 54.53 132.485 54.375 133.405 54.375C134.315 54.375 135.155 54.53 135.925 54.84C136.695 55.14 137.355 55.56 137.905 56.1C138.465 56.64 138.9 57.275 139.21 58.005C139.52 58.725 139.675 59.505 139.675 60.345C139.675 61.185 139.52 61.97 139.21 62.7C138.9 63.42 138.465 64.05 137.905 64.59C137.355 65.13 136.695 65.555 135.925 65.865C135.155 66.165 134.315 66.315 133.405 66.315C132.485 66.315 131.64 66.165 130.87 65.865C130.11 65.555 129.455 65.13 128.905 64.59C128.355 64.05 127.925 63.42 127.615 62.7C127.305 61.97 127.15 61.185 127.15 60.345ZM144.472 54.69V63.51H147.997V66H141.532V54.69H144.472Z" fill="black"/>
<path d="M73.0003 77.5542C73.0827 77.6367 73.1397 77.6938 73.1904 77.7445C73.0637 78.1188 72.7215 77.9412 72.43 78.03C72.411 78.5184 72.6011 78.9625 72.7405 79.4256C73.0573 80.485 73.3551 81.5507 73.672 82.6101C73.8304 83.1367 74.0205 83.6569 74.1852 84.1834C74.2486 84.3927 74.2929 84.6021 74.369 84.8812C74.7555 83.8725 75.199 82.959 75.5539 82.0011C75.744 81.4936 75.9911 80.9925 76.2129 80.4913C76.5677 79.6793 76.9162 78.8673 77.2267 78.0427C77.3408 77.7382 77.5055 77.6557 77.7906 77.7001C78.0188 78.2012 78.3483 78.677 78.4496 79.2036C78.551 79.7364 78.8108 80.1995 78.9756 80.7007C79.134 81.1891 79.3684 81.6713 79.5648 82.1597C79.869 82.94 80.1858 83.7139 80.4963 84.4879C80.528 84.564 80.5723 84.6274 80.6864 84.8304C81.4214 82.4833 82.2325 80.3137 82.9105 77.9983C82.6443 77.9983 82.4669 78.0236 82.3085 77.9919C82.1755 77.9602 82.0551 77.8587 81.865 77.7445C81.96 77.7128 82.0551 77.6811 82.1501 77.6493C82.1248 77.624 82.1058 77.5923 82.0804 77.5669C84.0827 77.5669 86.0787 77.5669 88.157 77.5669C88.0493 77.7445 87.9796 77.865 87.8973 77.9983C87.7135 77.9983 87.5361 77.9983 87.3777 77.9983C87.0101 79.2226 87.2256 80.4469 87.1559 81.6522C87.308 81.7728 87.3333 81.6078 87.3967 81.5634C87.479 81.5063 87.5424 81.4175 87.6185 81.3477C88.4739 80.5421 89.3166 79.7237 90.191 78.9435C90.4952 78.6707 90.9071 78.5121 91.0148 78.068C90.9134 77.9412 90.7993 77.8079 90.698 77.6874C90.7613 77.6113 90.793 77.5415 90.8183 77.5415C91.6421 77.5352 92.4722 77.5352 93.2896 77.5352C93.3719 77.6176 93.4416 77.6874 93.5177 77.7635C93.3719 77.8397 93.2262 77.9856 93.0805 77.9919C92.4215 78.0046 91.9842 78.3789 91.547 78.8039C91.2429 79.1021 90.9007 79.3558 90.5712 79.6286C90.2671 79.8887 89.9946 80.1805 89.6651 80.4152C89.1899 80.7578 88.8034 81.2272 88.3725 81.6522C88.4105 81.7347 88.4168 81.8362 88.4675 81.8616C88.9554 82.147 89.3103 82.5784 89.7158 82.9654C90.4762 83.6822 91.2302 84.4054 92.0096 85.1032C92.3771 85.4267 92.827 85.6615 93.1818 85.9977C93.5493 86.3402 94.0056 86.3846 94.4871 86.6003C94.5949 86.4227 94.7026 86.2514 94.899 85.9152C94.899 83.5236 94.899 80.8846 94.899 78.2203C94.8356 78.1695 94.7596 78.0997 94.6329 77.9919C94.4681 77.9919 94.24 77.9919 94.0436 77.9919C93.9612 77.9094 93.9042 77.8523 93.8472 77.7953C93.8598 77.7635 93.8662 77.7128 93.8915 77.6937C93.9676 77.6367 94.0499 77.5415 94.1323 77.5415C96.0332 77.5352 97.9405 77.5352 99.9238 77.5352C99.6133 78.049 99.7337 78.5311 99.6957 79.0259C99.6006 79.1021 99.4866 79.1909 99.2965 79.3431C99.2585 79.0894 99.2395 78.9244 99.2014 78.6707C99.1127 78.6009 98.9543 78.4804 98.7389 78.3218C98.0102 78.3218 97.1865 78.3218 96.3247 78.3218C96.3247 79.3939 96.3247 80.466 96.3247 81.5571C97.2055 81.5571 98.0736 81.5571 98.986 81.5571C99.1381 81.481 99.3155 81.3795 99.5119 81.278C99.6513 81.9314 99.4866 82.5277 99.3218 83.124C99.2648 83.124 99.2141 83.124 99.1888 83.124C99.0494 82.8575 98.9163 82.5974 98.7896 82.3627C97.9278 82.3627 97.1358 82.3627 96.312 82.3627C96.312 83.4792 96.312 84.5894 96.312 85.6742C96.3691 85.7883 96.4197 85.8962 96.4958 86.0548C96.6542 86.1055 96.857 86.2134 97.0661 86.2197C97.7124 86.2451 98.3587 86.2261 99.005 86.2261C99.2395 86.0548 99.4802 85.8772 99.702 85.7186C99.6767 85.3887 99.759 85.1793 100.12 85.1222C100.272 85.7439 99.9872 86.2705 99.8288 86.8351C97.3829 86.8351 94.9624 86.8351 92.5102 86.8351C92.1173 86.5686 91.6231 86.41 91.2112 86.0992C91.0338 85.966 90.8564 85.8264 90.698 85.6742C89.5257 84.5767 88.3598 83.4729 87.1369 82.3183C87.1369 83.3206 87.1305 84.2722 87.1432 85.2174C87.1432 85.4014 87.2573 85.5853 87.2826 85.7757C87.308 85.9533 87.289 86.1372 87.289 86.3085C87.6058 86.5559 87.9796 86.5559 88.3598 86.5369C88.3598 86.6574 88.3598 86.7272 88.3598 86.8224C87.2446 86.8224 86.1421 86.8224 85.0142 86.8224C85.0015 86.7843 84.9762 86.7145 84.9318 86.5877C85.1472 86.5623 85.331 86.5432 85.5274 86.5179C85.5908 86.4544 85.6668 86.3783 85.7048 86.3402C86.047 83.9296 85.8379 81.538 85.8949 79.1528C85.9076 78.7468 85.7745 78.3852 85.5654 78.0236C85.1282 78.0236 84.691 78.0236 84.2538 78.0236C83.8546 78.3218 83.6709 78.7595 83.4808 79.2289C82.9802 80.4977 82.5176 81.7791 82.0551 83.0605C81.6749 84.1136 81.244 85.1603 80.9272 86.2451C80.8575 86.4925 80.6927 86.7145 80.5533 86.981C80.471 86.981 80.3442 86.981 80.1351 86.981C79.1213 84.7353 78.2786 82.3627 77.2774 79.9711C77.1887 80.1551 77.119 80.2883 77.0556 80.4279C76.8655 80.8656 76.6691 81.3033 76.498 81.7474C76.0291 82.9781 75.4145 84.1453 75.0026 85.395C74.8189 85.9596 74.4957 86.4798 74.2422 87C74.0965 87 73.9888 87 73.8177 87C73.7163 86.7907 73.5769 86.5623 73.4945 86.3149C73.1587 85.3126 72.8736 84.2976 72.5061 83.3079C72.1449 82.3437 71.8788 81.3477 71.4986 80.3898C71.3148 79.9267 71.1311 79.4446 71.036 78.9562C70.9536 78.5502 70.7572 78.2774 70.4784 78.0046C70.282 78.0046 70.0792 78.0046 69.8384 78.0046C69.7624 77.8841 69.6737 77.7508 69.5533 77.5542C70.7699 77.5542 71.8724 77.5542 73.0003 77.5542Z" fill="black"/>
<path d="M50.9166 76.5582C50.6441 76.4314 50.4984 76.3299 50.3399 76.2982C50.1752 76.2601 49.9914 76.2918 49.8077 76.2918C49.8077 76.1649 49.8077 76.0952 49.8077 76C51.0243 76 52.2345 76 53.4638 76C53.4765 76.0381 53.5018 76.1078 53.5272 76.184C53.2167 76.3172 52.9125 76.4504 52.6464 76.5582C52.3106 77.8777 52.4626 79.1528 52.4183 80.4469C54.6487 80.4469 56.8538 80.4469 59.0969 80.4469C59.0272 79.1655 59.2426 77.8904 58.8941 76.6344C58.5836 76.2982 58.1718 76.2537 57.7282 76.2918C57.7092 76.1903 57.6965 76.1205 57.6839 76.0127C58.9765 76.0127 60.2565 76.0127 61.5491 76.0127C61.5554 76.0825 61.5618 76.1523 61.5744 76.2157C61.283 76.2918 61.0042 76.3616 60.7253 76.4377C60.5162 76.7422 60.4846 77.0721 60.4846 77.4273C60.4972 79.6794 60.4782 81.925 60.4972 84.1771C60.5036 84.8305 60.3515 85.4966 60.6366 86.1373C60.7697 86.2578 60.9028 86.3783 61.0612 86.5242C61.3336 86.5242 61.6378 86.5242 61.9483 86.5242C62.4425 86.5242 62.7783 86.3022 62.9811 85.8391C63.2156 85.2936 63.5514 84.7797 63.7352 84.2151C63.8999 83.7076 64.204 83.2699 64.3371 82.7561C64.5019 82.128 64.844 81.5698 65.0658 80.9608C65.2876 80.3581 65.5727 79.7809 65.7818 79.1655C65.9846 78.5565 66.3268 77.9983 66.6182 77.3829C66.7069 77.3829 66.8273 77.3829 66.9541 77.3829C67.2836 78.0998 67.6447 78.8039 67.9299 79.5335C68.3291 80.5611 68.8043 81.5508 69.2225 82.5657C69.6344 83.5554 70.0716 84.545 70.5785 85.4965C71.0347 86.353 71.4529 86.5813 72.2323 86.5369C72.2513 86.6004 72.2703 86.6701 72.3083 86.8034C71.2628 86.8731 70.249 86.8097 69.2162 86.8414C69.1972 86.7463 69.1781 86.6765 69.1655 86.6004C69.2795 86.5433 69.3872 86.4989 69.5013 86.4418C69.0768 85.4902 68.6586 84.5513 68.2404 83.5998C67.1695 83.5998 66.1176 83.5998 64.9771 83.5998C64.7046 84.2532 64.4068 84.9573 64.0837 85.7376C64.0837 85.9279 64.0837 86.207 64.0837 86.5052C64.2737 86.5179 64.4448 86.5242 64.6413 86.5369C64.6603 86.6004 64.6793 86.6701 64.692 86.7336C64.5969 86.8604 60.5606 86.9049 58.0514 86.816C58.0387 86.7526 58.0197 86.6828 57.9943 86.5496C58.1844 86.5369 58.3555 86.5242 58.5836 86.5115C58.6597 86.41 58.7674 86.2705 58.8751 86.1309C58.8878 86.1436 58.9005 86.1563 58.9131 86.169C58.9258 86.15 58.9448 86.1246 58.9385 86.1055C58.8878 85.6488 59.0652 85.2111 59.0779 84.7734C59.1222 83.5617 59.0905 82.3501 59.0905 81.1194C56.8665 81.1194 54.6804 81.1194 52.4246 81.1194C52.4246 81.9504 52.3993 82.7941 52.431 83.6378C52.4626 84.4689 52.545 85.2999 52.6084 86.188C52.7478 86.2768 52.9315 86.3974 53.1596 86.5496C53.3878 86.5496 53.6666 86.5496 53.958 86.5496C53.9644 86.6448 53.9644 86.7145 53.9707 86.816C52.6274 86.816 51.3031 86.816 49.9598 86.816C49.9598 86.7209 49.9598 86.6511 49.9598 86.5559C50.2005 86.5559 50.4223 86.5559 50.5871 86.5559C50.8849 86.391 50.8278 86.1436 50.8912 85.9279C50.9482 85.7186 51.0369 85.5219 51.0306 85.2872C51.0243 83.9423 51.0243 82.5975 51.0243 81.2526C51.0243 79.9585 51.0306 78.6644 51.0179 77.3702C51.0243 77.0848 50.9546 76.793 50.9166 76.5582ZM66.5992 79.5335C66.2064 80.0092 66.1557 80.6119 65.9212 81.1384C65.6868 81.6713 65.4333 82.2042 65.2939 82.8068C65.8008 82.8068 66.238 82.8132 66.6753 82.8068C67.0935 82.8005 67.5117 82.8385 67.8982 82.7878C67.4546 81.684 67.0428 80.6436 66.5992 79.5335Z" fill="black"/>
<path d="M103.566 86.5627C103.756 86.5627 103.978 86.5627 104.2 86.5627C104.213 86.6388 104.219 86.6896 104.219 86.7403C104.187 86.772 104.156 86.8418 104.124 86.8418C103.091 86.8482 102.058 86.8482 101.013 86.8482C100.994 86.772 100.975 86.7023 100.937 86.5754C101.203 86.5564 101.444 86.5373 101.684 86.5183C101.989 86.2455 102.058 85.903 102.058 85.5033C102.046 83.1244 102.052 80.7455 102.052 78.3666C102.052 78.1129 102.052 77.8528 102.052 77.6117C102.122 77.5419 102.179 77.4848 102.242 77.4214C102.267 77.4277 102.312 77.4214 102.343 77.4404C102.508 77.5483 102.686 77.6371 102.825 77.7703C104.27 79.1532 105.714 80.5425 107.146 81.9381C107.926 82.693 108.68 83.4796 109.453 84.2409C109.675 84.4629 109.934 84.6469 110.226 84.8309C110.029 84.2092 110.131 83.5875 110.118 82.9658C110.106 82.2934 110.118 81.6209 110.118 80.9485C110.118 80.3014 110.118 79.6544 110.118 79.0073C110.118 78.5506 110.118 78.5506 109.77 78.024C109.516 78.024 109.237 78.024 108.978 78.024C108.889 77.9225 108.819 77.8464 108.737 77.7576C108.794 77.6942 108.857 77.6244 108.914 77.5673C109.941 77.5673 110.961 77.5673 112 77.5673C111.943 77.8718 111.804 77.9923 111.531 77.9987C111.373 78.005 111.214 78.0811 111.043 78.1319C111.043 79.6417 111.043 81.0881 111.043 82.5281C111.043 83.9491 111.043 85.3637 111.043 86.7593C110.961 86.8418 110.91 86.8926 110.847 86.956C110.815 86.9433 110.777 86.9433 110.745 86.9243C110.403 86.6896 110.036 86.4802 109.725 86.2074C108.838 85.4018 107.97 84.5708 107.102 83.7461C105.695 82.4076 104.295 81.0563 102.806 79.6354C102.907 80.1555 102.667 80.5996 102.971 81.031C103.047 81.1325 102.983 81.3355 102.983 81.4877C102.983 82.7565 102.977 84.0252 102.983 85.2876C102.983 85.7761 103.116 86.2201 103.566 86.5627Z" fill="black"/>
<path d="M38.276 79.152C37.7 79.152 37.184 79.44 36.788 79.788C35.78 80.664 35.276 82.176 35.276 82.908C35.276 83.724 35.864 84.192 36.32 84.192C36.704 84.192 37.016 84.084 37.316 83.94C38.312 83.436 39.404 82.092 39.404 80.496C39.404 79.92 39.008 79.152 38.276 79.152ZM38.18 79.464C38.504 79.464 38.624 79.704 38.624 80.04C38.624 81.12 37.88 82.692 37.364 83.316C37.028 83.736 36.764 83.856 36.572 83.856C36.26 83.856 36.116 83.604 36.116 83.328C36.116 82.128 36.752 80.652 37.316 80.004C37.628 79.632 37.904 79.464 38.18 79.464ZM42.4204 79.272C42.4084 79.272 42.3604 79.2 42.3724 79.152C42.6004 78.372 42.9724 77.328 43.2844 76.764C43.7524 75.936 44.0644 75.744 44.4244 75.744C44.7484 75.744 44.9404 76.152 44.9284 76.596C44.9284 76.668 44.9164 76.788 44.9164 76.848C44.9164 76.932 44.9524 76.968 45.0124 76.968C45.2044 76.968 45.5884 76.668 45.6004 76.152C45.6124 75.78 45.3244 75.396 44.7124 75.396C44.3884 75.396 44.0164 75.504 43.5364 75.84C42.6244 76.452 41.9284 78.06 41.5324 79.212C41.5204 79.236 41.4844 79.296 41.4484 79.296C41.2804 79.296 40.8724 79.308 40.6564 79.308C40.5604 79.308 40.4284 79.452 40.4284 79.596C40.4284 79.644 40.4644 79.716 40.5484 79.716L41.2804 79.692C41.3524 79.692 41.3644 79.764 41.3524 79.788C40.8604 81.396 40.2124 83.772 39.8284 85.2C39.4684 86.592 39.0844 86.784 38.7604 86.784C38.4724 86.784 38.2084 86.616 37.9804 86.316C37.9324 86.256 37.8364 86.22 37.7884 86.232C37.6204 86.232 37.2724 86.628 37.2724 86.784C37.2604 87.072 37.5604 87.324 38.1124 87.324C38.3404 87.324 39.0124 87.108 39.4564 86.796C39.7684 86.556 40.2964 86.28 40.6444 85.116C41.0284 83.736 41.7844 81 42.1684 79.788C42.1924 79.728 42.2284 79.692 42.2644 79.692C42.6124 79.692 43.0564 79.656 43.3204 79.656C43.4764 79.656 43.6084 79.464 43.6084 79.392C43.6084 79.356 43.5724 79.236 43.5124 79.236L42.4204 79.272Z" fill="black"/>
</svg>
